<svg id="Layer_1" data-name="Layer 1" xmlns="http://www.w3.org/2000/svg" viewBox="0 0 410.87 689.53"><defs><style>.cls-1{fill:#231f20;}.cls-2{fill:none;stroke:#231f20;stroke-linecap:round;stroke-linejoin:round;stroke-width:20px;}.cls-3{fill:#fff;}.cls-4{fill:#ffe1e1;}</style></defs><path class="cls-1" d="M500.18,723h0c-86.72,0-175.53-60.08-177.48-174.89V547c2-114.81,90.77-174.87,177.49-174.87h0c86.72,0,175.54,60.08,177.48,174.88v1.12C675.71,662.91,586.9,723,500.18,723ZM388.77,547.54c1.55,75.54,57,109.36,111.4,109.36S610,623.09,611.59,547.54c-1.55-75.54-57-109.36-111.4-109.36S390.33,472,388.77,547.54Z" transform="translate(-294.76 -154.27)"/><path class="cls-1" d="M507.46,843.8c-44.18,0-89-12.33-126.42-36.49-58.06-37.55-89.35-98.48-85.86-167.19,0-1.24,0-2.34,0-3.26V529.26a33.09,33.09,0,0,1,.51-5.8c5.55-31.13,28-52.94,60.11-58.35,42-7.07,101.87,15.58,145.7,65,40.7-41.4,108.37-86.05,154.15-78.73,27.33,4.35,45.78,24.72,49.37,54.48a32.59,32.59,0,0,1,.24,3.95V656.74c0,.53,0,1.06,0,1.59-3.56,73.84-38.82,131.61-99.29,162.65C576.1,836.27,542,843.8,507.46,843.8ZM361.23,641.41c0,.65,0,1.32-.05,2-3,57.9,28.67,90.92,55.74,108.43,46.65,30.16,111.94,34.43,158.79,10.37,38.91-20,60.84-56.71,63.43-106.28V517.21c-9.76,2.11-28.75,9.81-54.42,28.24C554,567.53,534.3,590.05,530.14,599a33,33,0,0,1-58.78,2.18c-28.05-50.12-79.82-75.06-104.62-70.9-3.75.63-5,1.34-5.52,2.69C361.22,551.87,361.22,637.08,361.23,641.41Z" transform="translate(-294.76 -154.27)"/><path class="cls-1" d="M500.18,545.73C418.9,545.73,354.38,505,332,443.11c-14.65-4.68-26.54-16.72-32.72-33.41-11.26-25.9-.63-61.89,23.17-76.81a46.58,46.58,0,0,1,9.08-4.41c25.52-80.85,101.71-118,168.67-118h0c66.9,0,143,37.17,168.59,117.93,14.47,4.76,26.19,16.73,32.32,33.26,11.28,25.93.64,61.93-23.2,76.85A46.59,46.59,0,0,1,668.4,443c-22.35,61.86-86.87,102.68-168.16,102.7ZM383.43,385.67A33,33,0,0,1,390,402.36c5.41,53.39,59.23,77.29,110.18,77.29h0c50.94,0,104.75-23.92,110.13-77.32a33,33,0,0,1,6.56-16.66,32.89,32.89,0,0,1-6.46-15.84c-8.7-68.88-64.83-93.32-110.25-93.32-49,0-102.13,28.84-110.28,93.29A33,33,0,0,1,383.43,385.67Z" transform="translate(-294.76 -154.27)"/><path class="cls-1" d="M460.34,700.77a33.06,33.06,0,0,1-29.83-47.21l39.83-83.93A33,33,0,1,1,530,598l-39.83,83.94A33,33,0,0,1,460.34,700.77Z" transform="translate(-294.76 -154.27)"/><path class="cls-2" d="M474.51,359.14s-11.5,9.54-14.33,12c-1.13,1-3.29,2.64-5.27,4.18a124.61,124.61,0,0,0,21,10l-3.58,11.45c-14.89-5.36-23.46-10.79-31.1-15.49l-8.48-5.14,9.71-7.27h-.1c4.62-3.52,8.86-7.12,13.29-10.86l10.74-9,8,6.24Z" transform="translate(-294.76 -154.27)"/><path class="cls-2" d="M527.93,410.82s-21.95.44-26.48.58-28.17-.73-28.17-.73V400s23.93.88,27.7.74l31.66-.59.09,7.93Z" transform="translate(-294.76 -154.27)"/><path class="cls-2" d="M572.5,375.51l-5.09,3.89a135.22,135.22,0,0,1-28.36,17.54l-5.18-11.15A115.68,115.68,0,0,0,553.28,374c-2.17-1.32-4.34-2.72-5.66-3.67-3-2.28-18.65-12.63-18.65-12.63l9.51-8.59,12.16,8.3c4.62,3.15,9.33,6.46,14.23,9.47v-.08l7.25,4.48Z" transform="translate(-294.76 -154.27)"/><path class="cls-3" d="M644.63,547.54c-3.24,189.88-285.69,189.85-288.9,0C359,357.66,641.42,357.69,644.63,547.54Z" transform="translate(-294.76 -154.27)"/><path class="cls-1" d="M500.18,690.35h0c-37.46,0-72.5-12.68-98.67-35.71-29.47-25.91-45.44-62.95-46.18-107.1.75-44.17,16.73-81.2,46.19-107.12,26.18-23,61.22-35.7,98.67-35.7h0c37.46,0,72.5,12.69,98.68,35.71,29.46,25.92,45.43,62.95,46.18,107.1v0c-.76,44.15-16.73,81.19-46.2,107.1C572.67,677.68,537.63,690.35,500.18,690.35Zm0-284.8c-68.21,0-142.38,44.43-144,142,1.65,97.54,75.82,142,144,142s142.39-44.43,144.05-142C642.57,450,568.4,405.55,500.19,405.55Z" transform="translate(-294.76 -154.27)"/><path class="cls-4" d="M672.18,509.81V656.74c-10.88,225.42-354.5,188.83-344-15,0,0,0-112.43,0-112.43,10.82-60.69,122.39-32.89,172,55.77C521.42,539.46,663.14,434.92,672.18,509.81Z" transform="translate(-294.76 -154.27)"/><path class="cls-1" d="M507.35,812.55c-38.12,0-76.9-10.68-109.26-31.6C349,749.18,323.54,699.69,326.54,641.6h.2c-.21-1.92-.21-6.43-.21-17.49V529.26c3.23-18.31,15.46-30,34.45-33.2,39.57-6.65,103.46,24.12,139.12,85.48,20.61-38.42,108.79-105.82,150.57-99.16,13.44,2.14,21.23,11.3,23.15,27.24V656.74c-3,62.23-32.22,110.62-82.28,136.32C566.1,806.12,536.92,812.55,507.35,812.55Zm-177.51-172,.06,0-.06,1.17c-2.93,56.86,21.94,105.3,70,136.41,56.5,36.53,132.92,41.33,190.16,11.94,49-25.14,77.55-72.54,80.49-133.46V509.91c-1.74-14.23-8.6-22.39-20.38-24.27-40.7-6.52-131.62,63.94-148.46,100.09l-1.37,2.93-1.57-2.82c-34.63-61.88-98.19-93.1-137.23-86.52-12.38,2.09-27.93,9-31.72,30.23C329.83,530.33,329.83,629.05,329.84,640.58Z" transform="translate(-294.76 -154.27)"/><path class="cls-3" d="M670.48,374.07c-5.61-16.58-19-19.34-27.25-8.38-20.58-163-265.5-162.93-286.09,0-16.53-21.35-36,13.91-27.23,31.61,5.61,16.57,19,19.34,27.23,8.43,14.45,142.68,271.69,142.67,286.09,0C659.75,427.08,679.3,391.79,670.48,374.07Z" transform="translate(-294.76 -154.27)"/><path class="cls-1" d="M500.19,514.34c-63.34,0-134.75-32.83-144.27-104.84-3.63,3.39-8,4.9-12.38,4.19-6.6-1.07-12.14-6.86-15.19-15.9-6.13-12.29.84-32.08,10.76-38.3,5.65-3.55,11.67-2.65,16.88,2.39,12.26-82.9,80.86-120.06,144.2-120.06h0c63.34,0,131.93,37.17,144.18,120.1,3.65-3.44,8-5,12.46-4.27,6.58,1.06,12.1,6.81,15.17,15.78,6.13,12.52-.83,32.23-10.74,38.43-5.64,3.53-11.63,2.64-16.83-2.37-9.5,72-80.89,104.84-144.21,104.85Zm-141.83-113,.42,4.19C366.13,478,437.23,511,500.19,511h0c62.95,0,134-33.06,141.35-105.56l.42-4.13,2.53,3.29c4.69,6.08,9.88,7.62,15,4.42,8.64-5.41,14.91-23.33,9.48-34.26l-.08-.2c-2.66-7.84-7.25-12.83-12.61-13.69-4.26-.69-8.45,1.37-11.77,5.78l-2.44,3.25-.51-4C631.05,282.47,563,245.13,500.2,245.12S369.32,282.45,358.78,365.86l-.5,4-2.45-3.16c-4.69-6.06-9.86-7.57-15-4.38-8.64,5.42-14.9,23.34-9.48,34.25,2.74,8,7.33,13,12.68,13.9,4.27.69,8.44-1.35,11.75-5.74Z" transform="translate(-294.76 -154.27)"/><line class="cls-4" x1="165.6" y1="513.45" x2="205.43" y2="429.52"/><rect class="cls-1" x="433.83" y="624.1" width="92.9" height="3.3" transform="translate(-585.88 636.4) rotate(-64.56)"/><path d="M474.51,359.14s-11.5,9.54-14.33,12c-1.13,1-3.29,2.64-5.27,4.18a124.61,124.61,0,0,0,21,10l-3.58,11.45c-14.89-5.36-23.46-10.79-31.1-15.49l-8.48-5.14,9.71-7.27h-.1c4.62-3.52,8.86-7.12,13.29-10.86l10.74-9,8,6.24Z" transform="translate(-294.76 -154.27)"/><path d="M527.93,410.82s-21.95.44-26.48.58-28.17-.73-28.17-.73V400s23.93.88,27.7.74l31.66-.59.09,7.93Z" transform="translate(-294.76 -154.27)"/><path d="M572.5,375.51l-5.09,3.89a135.22,135.22,0,0,1-28.36,17.54l-5.18-11.15A115.68,115.68,0,0,0,553.28,374c-2.17-1.32-4.34-2.72-5.66-3.67-3-2.28-18.65-12.63-18.65-12.63l9.51-8.59,12.16,8.3c4.62,3.15,9.33,6.46,14.23,9.47v-.08l7.25,4.48Z" transform="translate(-294.76 -154.27)"/><path class="cls-1" d="M494.25,233.72c-1.36-.79-2.14-1.32-3.13-2s-1.85-1.3-2.75-2c-1.79-1.36-3.52-2.79-5.2-4.32a53.21,53.21,0,0,1-9.24-10.87,32.94,32.94,0,0,1-5.23-15.36,28.93,28.93,0,0,1,4-16.12,42.51,42.51,0,0,1,9.38-10.73,74.78,74.78,0,0,1,10.56-7.3,61.35,61.35,0,0,1,12.06-5.4c1.18-.31,2.41-.57,3.61-.83a35.26,35.26,0,0,1,4-.35,16.86,16.86,0,0,1,9.24,2.72,15.4,15.4,0,0,1,5.61,7.86,22.66,22.66,0,0,1,.92,7.76A34.61,34.61,0,0,1,524.6,190c-2.1,4-4.66,7.92-9.34,10.68a13,13,0,0,1-8.28,1.8,13.83,13.83,0,0,1-7.25-3.35,25.74,25.74,0,0,1-4.39-4.93c-1.16-1.59-2.35-3.15-3.41-4.83a89,89,0,0,1-6-10.24,59.41,59.41,0,0,1-4.15-11.22c-.89-4-1.56-7.86-.53-12.36a1.64,1.64,0,0,1,3.22.55l0,.35c-.36,3,.48,6.88,1.68,10.17a53.29,53.29,0,0,0,4.85,9.74,81.07,81.07,0,0,0,6.51,8.87c1.14,1.44,2.42,2.79,3.65,4.16a18.29,18.29,0,0,0,3.53,3.26,5.33,5.33,0,0,0,3.07,1.1,4.21,4.21,0,0,0,2.55-1c1.85-1.32,3.53-4.14,4.6-7a23.35,23.35,0,0,0,1.45-9,10.21,10.21,0,0,0-.8-3.48c-.43-.82-.85-1.1-1.06-1.16a10.64,10.64,0,0,0-1.69,0l-1.61.36-1.9.68a47.53,47.53,0,0,0-8.27,4.92c-5.54,4-10.55,8.92-12.52,13.47a9.91,9.91,0,0,0-.79,5.87,14,14,0,0,0,3,5.7,33.83,33.83,0,0,0,6.28,5.82c1.25.9,2.56,1.76,3.91,2.57.67.4,1.36.79,2,1.15a19.94,19.94,0,0,0,1.8.88,11.45,11.45,0,1,1-7.82,21.52,12.94,12.94,0,0,1-1.77-.81Z" transform="translate(-294.76 -154.27)"/></svg>